<svg xmlns="http://www.w3.org/2000/svg" viewBox="0 0 590 590" width="590" height="590">
    <defs>
        <linearGradient id="l3zawa-grad" x1="0" y1="0" x2="0" y2="1">
            <stop offset="0%" stop-color="var(--color-brand)" stop-opacity="1" />
            <stop offset="100%" stop-color="var(--color-brand)" stop-opacity="0.75" />
        </linearGradient>
    </defs>
    <path
        d="M295 20 C 310 180, 410 280, 570 295 C 410 310, 310 410, 295 570 C 280 410, 180 310, 20 295 C 180 280, 280 180, 295 20 Z"
        fill="url(#l3zawa-grad)"
    />
    <path
        d="M295 150 C 303 230, 360 287, 440 295 C 360 303, 303 360, 295 440 C 287 360, 230 303, 150 295 C 230 287, 287 230, 295 150 Z"
        fill="#ffffff"
        fill-opacity="0.18"
    />
    <circle cx="295" cy="295" r="34" fill="#ffffff" fill-opacity="0.95" />
</svg>
